<?xml version="1.0" standalone="no"?>
<!DOCTYPE svg PUBLIC "-//W3C//DTD SVG 20010904//EN"
 "http://www.w3.org/TR/2001/REC-SVG-20010904/DTD/svg10.dtd">
<svg version="1.0" xmlns="http://www.w3.org/2000/svg"
 width="131.000000pt" height="70.000000pt" viewBox="0 0 131.000000 70.000000"
 preserveAspectRatio="xMidYMid meet">
<metadata>
Created by potrace 1.10, written by Peter Selinger 2001-2011
</metadata>
<g transform="translate(0.000000,70.000000) scale(0.100000,-0.100000)"
fill="#000000" stroke="none">
<path d="M686 655 c-14 -10 -22 -12 -26 -4 -9 14 -52 -41 -121 -155 -32 -53
-63 -92 -77 -97 -25 -9 -72 -12 -72 -4 0 2 25 42 55 88 70 109 81 135 60 156
-13 14 -15 13 -15 -3 0 -14 -5 -17 -22 -11 -13 4 -36 6 -51 6 -17 -1 -26 3
-22 9 12 19 -12 10 -71 -29 -74 -48 -107 -83 -98 -104 10 -26 31 -20 82 22 55
45 140 96 148 88 6 -5 -6 -26 -91 -161 -35 -56 -48 -70 -71 -73 -92 -11 -170
-25 -178 -33 -6 -6 -5 -20 3 -36 9 -20 14 -24 25 -15 8 6 45 18 84 25 l70 13
-24 -51 c-25 -53 -30 -101 -14 -126 7 -11 13 -6 26 25 59 144 77 165 140 165
30 0 30 0 -1 -60 -37 -72 -86 -225 -79 -244 3 -9 14 -16 24 -16 14 0 25 20 46
82 15 46 44 120 65 166 33 72 41 82 64 82 25 0 25 -1 10 -30 -20 -39 -20 -96
1 -104 38 -15 63 -5 103 40 23 26 46 64 52 85 8 27 18 38 35 42 13 2 24 3 24
2 0 -2 -12 -28 -26 -59 -28 -61 -29 -109 -2 -114 11 -2 29 19 58 68 24 39 47
73 53 77 5 3 8 2 5 -3 -33 -68 -39 -90 -30 -104 20 -32 40 -21 87 45 53 74 69
81 30 14 -27 -48 -31 -79 -13 -97 18 -18 33 -15 66 13 29 24 30 24 35 4 5 -17
12 -20 43 -17 34 3 46 12 106 83 61 73 83 115 59 115 -5 0 -41 -36 -81 -80
-40 -44 -75 -78 -78 -75 -3 3 14 44 38 91 36 70 41 87 29 95 -26 16 -35 9 -73
-62 -34 -62 -94 -134 -104 -124 -2 2 15 38 37 81 30 58 37 81 29 91 -19 23
-35 14 -93 -49 l-56 -63 25 55 c18 40 22 57 14 67 -18 22 -34 15 -78 -34 -41
-47 -44 -44 -8 9 22 32 23 44 1 52 -11 5 -24 -2 -37 -18 -34 -39 -59 -41 -95
-6 -36 36 -54 32 -96 -24 -19 -25 -31 -32 -49 -29 -23 5 -23 7 31 91 29 48 70
108 89 135 36 47 36 59 0 32z m4 -247 c0 -19 -55 -110 -79 -132 -25 -23 -26
-20 -5 29 31 75 84 140 84 103z"/>
<path d="M1140 530 c-20 -38 13 -55 43 -22 13 14 14 21 5 30 -18 18 -36 15
-48 -8z"/>
</g>
</svg>
